<svg width="20" height="18" viewBox="0 0 20 18" fill="none" xmlns="http://www.w3.org/2000/svg">
<path fill-rule="evenodd" clip-rule="evenodd" d="M20 13.5878C20 13.1842 19.8811 12.8081 19.6771 12.4928L13.1069 1.07375C12.9344 0.749119 12.6772 0.477685 12.3627 0.288533C12.0482 0.0993807 11.6884 -0.000359588 11.3217 9.7412e-07H7.84914L17.9977 17.5801L19.5977 14.8094C19.9137 14.2792 20 14.0447 20 13.5878ZM0 13.5666L1.68914 16.4863C1.85802 16.8207 2.11662 17.1016 2.43509 17.2977C2.75357 17.4939 3.12002 17.5976 3.49371 17.5973H14.7074L12.3806 13.5671H0V13.5666ZM6.18971 2.84861L10.7257 10.7031H1.65314L6.18971 2.84861Z" fill="white"/>
</svg>
