<svg width="36" height="36" viewBox="0 0 36 36" fill="none" xmlns="http://www.w3.org/2000/svg">
<circle cx="18" cy="18" r="17.5" stroke="white"/>
<path fill-rule="evenodd" clip-rule="evenodd" d="M29.0492 22.4442C29.0492 21.9982 28.9179 21.5827 28.6925 21.2343L21.4323 8.61618C21.2417 8.25746 20.9575 7.95753 20.61 7.74852C20.2625 7.5395 19.8649 7.42929 19.4597 7.42969H15.6225L26.8367 26.8557L28.6047 23.7941C28.9539 23.2082 29.0492 22.9491 29.0492 22.4442ZM6.94922 22.4208L8.81572 25.647C9.00234 26.0166 9.28808 26.327 9.63999 26.5437C9.99191 26.7604 10.3968 26.875 10.8098 26.8747H23.2009L20.6298 22.4214H6.94922V22.4208ZM13.7889 10.5774L18.8011 19.2566H8.77594L13.7889 10.5774Z" fill="white"/>
</svg>
