<svg width="49" height="49" viewBox="0 0 49 49" fill="none" xmlns="http://www.w3.org/2000/svg">
<path d="M24.1777 0C37.5307 0 48.3554 10.8247 48.3555 24.1777C48.3555 37.5308 37.5308 48.3555 24.1777 48.3555C10.8247 48.3554 0 37.5307 0 24.1777C2.26778e-05 10.8248 10.8248 2.26793e-05 24.1777 0ZM11.1172 35.0498C11.3826 35.5753 11.7886 36.017 12.2891 36.3252C12.7896 36.6334 13.3658 36.7963 13.9531 36.7959H31.5762L27.9189 30.4629H8.46289L11.1172 35.0498ZM36.7471 36.7695L39.2607 32.415C39.7573 31.5817 39.8935 31.2131 39.8936 30.4951C39.8936 29.8609 39.7063 29.2699 39.3857 28.7744L29.0605 10.8281C28.7895 10.3181 28.3848 9.89195 27.8906 9.59473C27.3964 9.2975 26.8311 9.14006 26.2549 9.14062H20.7979L36.7471 36.7695ZM11.0605 25.9619H25.3184L18.1895 13.6182L11.0605 25.9619Z" fill="white"/>
</svg>
