<svg width="271" height="175" viewBox="0 0 271 175" fill="none" xmlns="http://www.w3.org/2000/svg">
<g clip-path="url(#clip0_5290_47318)">
<path d="M155.981 50.4403C155.966 49.2772 154.63 48.607 153.69 49.3003C148.735 52.9399 142.192 54.0068 136.243 51.9694C135.606 51.7537 134.907 51.9925 134.55 52.5586C130.694 58.694 123.774 69.6668 117.635 79.2416C117.138 80.0157 117.429 81.0517 118.264 81.4561C130.356 87.2873 144.095 87.0292 155.624 81.6256C156.175 81.3676 156.513 80.8052 156.498 80.2006C156.276 71.2806 156.102 59.7108 155.981 50.4403Z" fill="white"/>
<path d="M133.581 17.5397C133.619 17.5204 133.662 17.5127 133.705 17.5088C139.367 14.6087 146.368 14.6087 152.216 18.1174C158.095 21.6415 161.353 27.8346 161.365 34.1857C161.365 34.1895 161.365 34.1972 161.365 34.2011C161.365 34.2011 161.085 61.0727 160.639 78.8588C166.176 75.3039 170.979 70.4318 174.525 64.3696C186.213 44.3766 179.173 17.7322 159.116 5.96987C138.738 -5.98121 112.41 0.558566 100.135 20.6979C96.64 26.4327 94.6596 32.6605 94.0771 38.9114C109.75 30.2533 133.581 17.5358 133.581 17.5358V17.5397Z" fill="white"/>
<path d="M129.674 49.6344C130.016 49.0605 129.903 48.3287 129.414 47.8742C124.824 43.5914 122.742 37.3366 123.698 31.286C123.88 30.1344 122.661 29.2717 121.612 29.7993C113.229 34.0282 102.732 39.2932 94.6399 43.2563C94.1895 43.4759 93.9099 43.9342 93.9254 44.431C94.4069 57.2371 100.655 69.6003 111.691 77.5459C112.308 77.9927 113.178 77.8078 113.559 77.153C119.29 67.2509 125.958 55.9276 129.674 49.6344Z" fill="white"/>
<path d="M101.584 172.805C101.689 172.701 101.801 172.655 101.922 172.667C102.042 172.678 102.147 172.724 102.244 172.805C102.329 172.878 102.423 172.959 102.524 173.044C102.628 173.133 102.749 173.214 102.885 173.283C103.021 173.356 103.176 173.414 103.355 173.46C103.533 173.506 103.735 173.529 103.964 173.529C104.465 173.529 104.877 173.391 105.199 173.117C105.521 172.844 105.684 172.501 105.684 172.085C105.684 171.619 105.541 171.245 105.253 170.968C104.966 170.687 104.512 170.398 103.887 170.098C103.49 169.913 103.133 169.716 102.815 169.508C102.496 169.3 102.225 169.069 101.995 168.811C101.766 168.553 101.592 168.261 101.471 167.933C101.351 167.606 101.293 167.232 101.293 166.809C101.293 166.458 101.359 166.115 101.495 165.784C101.63 165.453 101.828 165.16 102.089 164.906C102.349 164.652 102.663 164.448 103.036 164.294C103.405 164.14 103.821 164.062 104.279 164.062C104.873 164.062 105.382 164.178 105.805 164.405C106.228 164.633 106.562 164.871 106.814 165.118C107.032 165.333 107.032 165.553 106.814 165.769L106.453 166.142C106.349 166.246 106.251 166.3 106.154 166.304C106.061 166.308 105.952 166.254 105.824 166.142C105.688 166.019 105.479 165.873 105.199 165.707C104.916 165.541 104.609 165.461 104.275 165.461C104.046 165.461 103.836 165.499 103.642 165.576C103.448 165.653 103.281 165.753 103.141 165.88C103.001 166.004 102.889 166.146 102.811 166.308C102.733 166.47 102.694 166.635 102.694 166.812C102.694 167.04 102.729 167.24 102.795 167.417C102.861 167.594 102.966 167.756 103.11 167.906C103.25 168.056 103.432 168.199 103.657 168.334C103.883 168.469 104.155 168.603 104.477 168.738C104.904 168.923 105.285 169.119 105.618 169.327C105.952 169.535 106.232 169.763 106.465 170.017C106.694 170.271 106.869 170.56 106.989 170.887C107.11 171.215 107.168 171.588 107.168 172.012C107.168 172.405 107.082 172.778 106.919 173.129C106.752 173.479 106.523 173.787 106.232 174.053C105.941 174.315 105.599 174.531 105.207 174.689C104.815 174.85 104.403 174.927 103.964 174.927C103.254 174.927 102.698 174.82 102.298 174.608C101.898 174.396 101.545 174.126 101.242 173.795C101.157 173.714 101.11 173.61 101.102 173.483C101.091 173.36 101.137 173.244 101.242 173.14L101.588 172.798L101.584 172.805Z" fill="white"/>
<path d="M116.394 174.776C116.246 174.776 116.133 174.733 116.048 174.652C115.963 174.572 115.924 174.456 115.924 174.31V165.779C115.924 165.675 115.873 165.625 115.768 165.625H113.423C113.275 165.625 113.163 165.582 113.077 165.501C112.992 165.421 112.953 165.305 112.953 165.159V164.693C112.953 164.546 112.996 164.435 113.077 164.35C113.159 164.269 113.275 164.227 113.423 164.227H119.916C120.063 164.227 120.176 164.269 120.261 164.35C120.343 164.435 120.386 164.546 120.386 164.693V165.159C120.386 165.305 120.343 165.417 120.261 165.501C120.176 165.586 120.063 165.625 119.916 165.625H117.57C117.465 165.625 117.415 165.675 117.415 165.779V174.31C117.415 174.456 117.372 174.568 117.291 174.652C117.205 174.737 117.093 174.776 116.945 174.776H116.397H116.394Z" fill="white"/>
<path d="M132.273 164.696C132.273 164.55 132.315 164.438 132.397 164.354C132.479 164.273 132.595 164.23 132.743 164.23H133.29C133.438 164.23 133.55 164.273 133.636 164.354C133.717 164.438 133.76 164.55 133.76 164.696V171.367C133.76 171.895 133.667 172.38 133.484 172.819C133.302 173.258 133.046 173.632 132.719 173.944C132.393 174.256 132.001 174.498 131.554 174.672C131.108 174.849 130.615 174.934 130.083 174.934C129.551 174.934 129.061 174.845 128.611 174.672C128.164 174.495 127.772 174.252 127.446 173.944C127.12 173.636 126.864 173.258 126.681 172.819C126.498 172.38 126.409 171.895 126.409 171.367V164.696C126.409 164.55 126.452 164.438 126.533 164.354C126.615 164.273 126.731 164.23 126.879 164.23H127.427C127.574 164.23 127.687 164.273 127.772 164.354C127.858 164.438 127.896 164.55 127.896 164.696V171.367C127.896 171.987 128.083 172.503 128.459 172.919C128.836 173.331 129.376 173.539 130.087 173.539C130.797 173.539 131.337 173.331 131.714 172.919C132.09 172.507 132.277 171.987 132.277 171.367V164.696H132.273Z" fill="white"/>
<path d="M141.028 174.78C140.881 174.78 140.768 174.737 140.683 174.656C140.597 174.575 140.559 174.46 140.559 174.314V164.696C140.559 164.55 140.601 164.438 140.683 164.354C140.768 164.273 140.881 164.23 141.028 164.23H143.766C144.341 164.23 144.865 164.327 145.339 164.519C145.813 164.712 146.216 164.974 146.55 165.301C146.884 165.632 147.141 166.025 147.323 166.48C147.506 166.934 147.595 167.427 147.595 167.955V171.059C147.595 171.587 147.502 172.08 147.323 172.534C147.141 172.989 146.884 173.382 146.55 173.713C146.216 174.044 145.813 174.306 145.339 174.495C144.865 174.687 144.341 174.783 143.766 174.783H141.028V174.78ZM146.112 167.955C146.112 167.593 146.053 167.265 145.941 166.977C145.824 166.688 145.665 166.441 145.455 166.241C145.246 166.041 145.001 165.887 144.714 165.783C144.426 165.679 144.112 165.629 143.766 165.629H142.201C142.096 165.629 142.046 165.679 142.046 165.783V173.227C142.046 173.331 142.096 173.382 142.201 173.382H143.766C144.112 173.382 144.426 173.331 144.714 173.227C145.001 173.123 145.249 172.973 145.455 172.777C145.665 172.58 145.824 172.338 145.941 172.049C146.053 171.76 146.112 171.429 146.112 171.055V167.951V167.955Z" fill="white"/>
<path d="M154.795 174.776C154.647 174.776 154.535 174.733 154.449 174.652C154.364 174.572 154.325 174.456 154.325 174.31V164.693C154.325 164.546 154.368 164.435 154.449 164.35C154.535 164.269 154.647 164.227 154.795 164.227H155.343C155.49 164.227 155.603 164.269 155.688 164.35C155.77 164.435 155.812 164.546 155.812 164.693V174.31C155.812 174.456 155.77 174.568 155.688 174.652C155.603 174.737 155.49 174.776 155.343 174.776H154.795Z" fill="white"/>
<path d="M169.889 171.365C169.889 171.893 169.796 172.378 169.617 172.817C169.435 173.256 169.178 173.63 168.852 173.942C168.526 174.254 168.134 174.496 167.687 174.67C167.241 174.847 166.747 174.931 166.215 174.931C165.683 174.931 165.194 174.843 164.744 174.67C164.297 174.492 163.905 174.25 163.579 173.942C163.253 173.634 162.996 173.256 162.814 172.817C162.631 172.378 162.542 171.893 162.542 171.365V167.641C162.542 167.113 162.635 166.632 162.814 166.189C162.996 165.75 163.253 165.376 163.579 165.064C163.909 164.752 164.297 164.509 164.744 164.336C165.19 164.159 165.683 164.074 166.215 164.074C166.747 164.074 167.237 164.163 167.687 164.336C168.134 164.513 168.526 164.756 168.852 165.064C169.182 165.376 169.435 165.75 169.617 166.189C169.8 166.628 169.889 167.113 169.889 167.641V171.365ZM168.402 167.641C168.402 167.021 168.215 166.504 167.839 166.089C167.462 165.676 166.922 165.468 166.212 165.468C165.501 165.468 164.961 165.676 164.585 166.089C164.208 166.501 164.021 167.021 164.021 167.641V171.365C164.021 171.985 164.208 172.501 164.585 172.917C164.961 173.329 165.501 173.537 166.212 173.537C166.922 173.537 167.462 173.329 167.839 172.917C168.215 172.505 168.402 171.985 168.402 171.365V167.641Z" fill="white"/>
<path d="M18.8073 137.419C18.5588 137.616 18.2792 137.704 17.9685 137.677C17.6579 137.654 17.3666 137.565 17.0909 137.419L6.2258 131.126C6.05106 131.026 5.89573 131.026 5.75982 131.126C5.62391 131.226 5.53071 131.349 5.48023 131.496L3.95026 136.529C3.77552 137.123 3.35225 137.419 2.68046 137.419H0.851487C0.129217 137.419 -0.130955 137.072 0.0670863 136.383L7.53443 113.24C7.65869 112.847 7.82566 112.581 8.03924 112.442C8.24893 112.308 8.52852 112.238 8.87801 112.238H11.4914C11.8409 112.238 12.1205 112.308 12.3301 112.442C12.5398 112.577 12.7107 112.843 12.835 113.24L19.9645 135.382C20.1392 135.948 20.0382 136.395 19.6655 136.714L18.8073 137.419ZM10.5555 116.945C10.4818 116.675 10.3575 116.537 10.1828 116.537C10.008 116.537 9.88375 116.671 9.80997 116.945L6.86264 126.72C6.76168 127.039 6.75003 127.282 6.82381 127.44C6.89759 127.602 7.02185 127.729 7.19659 127.829L14.2135 131.9C14.4853 132.073 14.6872 132.093 14.8115 131.954C14.9358 131.819 14.9746 131.665 14.9241 131.492L10.5555 116.941V116.945Z" fill="white"/>
<path d="M48.8179 137.419C48.1966 137.419 47.7345 137.084 47.4355 136.418L43.032 127.012C42.8845 126.666 42.6204 126.492 42.2476 126.492H38.7023C38.4538 126.492 38.3295 126.616 38.3295 126.862V136.302C38.3295 136.649 38.2285 136.918 38.0305 137.119C37.8324 137.319 37.5567 137.415 37.2073 137.415H35.9025C35.553 137.415 35.2812 137.315 35.0793 137.119C34.8812 136.922 34.7803 136.649 34.7803 136.302V113.347C34.7803 113.001 34.8812 112.731 35.0793 112.531C35.2773 112.335 35.553 112.234 35.9025 112.234H43.5562C44.5503 112.234 45.4862 112.415 46.356 112.77C47.2258 113.128 47.9792 113.621 48.616 114.253C49.249 114.88 49.7499 115.628 50.111 116.494C50.4722 117.357 50.6508 118.285 50.6508 119.271C50.6508 120.677 50.313 121.925 49.6334 123.011C48.9539 124.097 48.0996 124.925 47.0666 125.491C46.6667 125.714 46.5812 126.073 46.8065 126.566L51.2876 136.083C51.4624 136.452 51.474 136.768 51.3265 137.026C51.1789 137.284 50.9149 137.415 50.5421 137.415H48.8257L48.8179 137.419ZM43.331 123.165C43.8281 123.165 44.3057 123.072 44.7678 122.888C45.2299 122.703 45.6337 122.437 45.9793 122.09C46.3288 121.744 46.6084 121.332 46.8181 120.85C47.0278 120.369 47.1365 119.845 47.1365 119.275C47.1365 118.705 47.0317 118.196 46.8181 117.738C46.6045 117.28 46.3249 116.895 45.9793 116.571C45.6299 116.251 45.226 116.005 44.7678 115.832C44.3057 115.658 43.8281 115.574 43.331 115.574H38.7411C38.4926 115.574 38.3683 115.697 38.3683 115.943V122.795C38.3683 123.042 38.4926 123.165 38.7411 123.165H43.331Z" fill="white"/>
<path d="M71.7774 137.419C71.4279 137.419 71.1561 137.319 70.958 137.123C70.76 136.926 70.659 136.653 70.659 136.306V115.943C70.659 115.697 70.5347 115.574 70.2862 115.574H64.6867C64.3372 115.574 64.0654 115.474 63.8635 115.277C63.6654 115.081 63.5645 114.807 63.5645 114.461V113.351C63.5645 113.005 63.6654 112.735 63.8635 112.535C64.0615 112.338 64.3372 112.238 64.6867 112.238H80.1805C80.53 112.238 80.8019 112.338 81.0038 112.535C81.2018 112.731 81.3028 113.005 81.3028 113.351V114.461C81.3028 114.807 81.2018 115.077 81.0038 115.277C80.8057 115.474 80.53 115.574 80.1805 115.574H74.581C74.3325 115.574 74.2082 115.697 74.2082 115.943V136.306C74.2082 136.653 74.1073 136.922 73.9092 137.123C73.7112 137.323 73.4355 137.419 73.086 137.419H71.7812H71.7774Z" fill="white"/>
<path d="M102.764 137.419C102.414 137.419 102.135 137.35 101.925 137.215C101.711 137.08 101.544 136.814 101.42 136.418L93.9528 113.274C93.7548 112.585 94.015 112.238 94.7372 112.238H96.5662C97.238 112.238 97.6613 112.535 97.836 113.128L103.696 132.716C103.769 132.99 103.894 133.125 104.068 133.125C104.243 133.125 104.367 132.99 104.441 132.716L110.301 113.128C110.476 112.535 110.899 112.238 111.571 112.238H113.4C114.122 112.238 114.382 112.585 114.184 113.274L106.717 136.418C106.593 136.814 106.426 137.08 106.212 137.215C105.998 137.35 105.719 137.419 105.373 137.419H102.76H102.764Z" fill="white"/>
<path d="M145.88 129.272C145.88 130.531 145.663 131.687 145.228 132.734C144.793 133.782 144.183 134.679 143.399 135.419C142.614 136.158 141.686 136.74 140.618 137.16C139.547 137.58 138.378 137.788 137.108 137.788C135.838 137.788 134.669 137.576 133.598 137.16C132.526 136.74 131.602 136.158 130.817 135.419C130.033 134.679 129.423 133.786 128.988 132.734C128.553 131.687 128.336 130.531 128.336 129.272V120.387C128.336 119.127 128.553 117.976 128.988 116.924C129.423 115.877 130.033 114.979 130.817 114.24C131.602 113.5 132.53 112.919 133.598 112.499C134.666 112.079 135.838 111.871 137.108 111.871C138.378 111.871 139.547 112.083 140.618 112.499C141.686 112.919 142.614 113.5 143.399 114.24C144.183 114.979 144.793 115.877 145.228 116.924C145.663 117.976 145.88 119.127 145.88 120.387V129.272ZM142.335 120.387C142.335 118.904 141.888 117.671 140.991 116.685C140.094 115.699 138.801 115.203 137.108 115.203C135.415 115.203 134.122 115.696 133.225 116.685C132.328 117.671 131.881 118.908 131.881 120.387V129.272C131.881 130.755 132.328 131.987 133.225 132.973C134.122 133.959 135.415 134.456 137.108 134.456C138.801 134.456 140.094 133.963 140.991 132.973C141.888 131.987 142.335 130.751 142.335 129.272V120.387Z" fill="white"/>
<path d="M162.42 132.715C162.668 132.469 162.936 132.357 163.224 132.38C163.511 132.403 163.764 132.515 163.989 132.715C164.187 132.889 164.412 133.081 164.661 133.289C164.909 133.501 165.196 133.69 165.519 133.863C165.841 134.036 166.214 134.179 166.637 134.29C167.06 134.402 167.546 134.456 168.093 134.456C169.289 134.456 170.272 134.129 171.041 133.474C171.813 132.819 172.198 131.999 172.198 131.013C172.198 129.904 171.856 129.014 171.173 128.348C170.489 127.681 169.398 126.992 167.907 126.276C166.959 125.833 166.109 125.363 165.348 124.87C164.587 124.377 163.934 123.822 163.387 123.202C162.839 122.586 162.424 121.889 162.136 121.111C161.849 120.333 161.705 119.439 161.705 118.426C161.705 117.587 161.869 116.774 162.191 115.981C162.513 115.191 162.987 114.494 163.608 113.889C164.229 113.285 164.983 112.795 165.868 112.426C166.75 112.056 167.74 111.871 168.835 111.871C170.252 111.871 171.468 112.145 172.473 112.688C173.483 113.231 174.283 113.797 174.881 114.39C175.405 114.91 175.405 115.426 174.881 115.946L174.023 116.836C173.774 117.082 173.537 117.213 173.312 117.225C173.087 117.236 172.827 117.109 172.528 116.836C172.206 116.539 171.705 116.192 171.033 115.8C170.361 115.407 169.627 115.206 168.831 115.206C168.284 115.206 167.779 115.299 167.321 115.484C166.858 115.669 166.462 115.911 166.124 116.204C165.787 116.501 165.526 116.839 165.34 117.221C165.154 117.602 165.06 118.006 165.06 118.422C165.06 118.965 165.142 119.447 165.301 119.867C165.464 120.287 165.713 120.676 166.047 121.034C166.385 121.392 166.82 121.731 167.352 122.051C167.887 122.37 168.54 122.694 169.313 123.013C170.334 123.456 171.243 123.926 172.039 124.419C172.835 124.912 173.506 125.463 174.054 126.068C174.601 126.672 175.017 127.362 175.304 128.14C175.592 128.918 175.735 129.811 175.735 130.824C175.735 131.764 175.537 132.65 175.137 133.489C174.737 134.329 174.19 135.065 173.495 135.692C172.8 136.32 171.984 136.829 171.048 137.21C170.116 137.591 169.126 137.784 168.082 137.784C166.389 137.784 165.064 137.53 164.105 137.025C163.146 136.52 162.307 135.87 161.585 135.08C161.387 134.884 161.274 134.637 161.247 134.341C161.224 134.044 161.333 133.774 161.585 133.524L162.408 132.707L162.42 132.715Z" fill="white"/>
<path d="M197.77 137.419C197.42 137.419 197.148 137.319 196.946 137.123C196.748 136.926 196.647 136.653 196.647 136.306V115.943C196.647 115.697 196.523 115.574 196.275 115.574H190.675C190.325 115.574 190.054 115.474 189.852 115.277C189.654 115.081 189.553 114.807 189.553 114.461V113.351C189.553 113.005 189.654 112.735 189.852 112.535C190.05 112.338 190.325 112.238 190.675 112.238H206.169C206.518 112.238 206.79 112.338 206.992 112.535C207.19 112.731 207.291 113.005 207.291 113.351V114.461C207.291 114.807 207.19 115.077 206.992 115.277C206.794 115.477 206.518 115.574 206.169 115.574H200.569C200.321 115.574 200.197 115.697 200.197 115.943V136.306C200.197 136.653 200.096 136.922 199.898 137.123C199.699 137.319 199.424 137.419 199.074 137.419H197.77Z" fill="white"/>
<path d="M237.903 129.272C237.903 130.531 237.685 131.687 237.25 132.734C236.815 133.782 236.206 134.679 235.421 135.419C234.637 136.158 233.709 136.74 232.641 137.16C231.569 137.58 230.4 137.788 229.13 137.788C227.861 137.788 226.692 137.576 225.62 137.16C224.548 136.74 223.624 136.158 222.84 135.419C222.055 134.679 221.446 133.786 221.011 132.734C220.576 131.687 220.358 130.531 220.358 129.272V120.387C220.358 119.127 220.576 117.976 221.011 116.924C221.446 115.877 222.055 114.979 222.84 114.24C223.624 113.5 224.552 112.919 225.62 112.499C226.692 112.079 227.861 111.871 229.13 111.871C230.4 111.871 231.569 112.083 232.641 112.499C233.709 112.919 234.637 113.5 235.421 114.24C236.206 114.979 236.815 115.877 237.25 116.924C237.685 117.976 237.903 119.127 237.903 120.387V129.272ZM234.357 120.387C234.357 118.904 233.911 117.671 233.014 116.685C232.117 115.699 230.824 115.203 229.13 115.203C227.437 115.203 226.144 115.696 225.247 116.685C224.35 117.671 223.904 118.908 223.904 120.387V129.272C223.904 130.755 224.35 131.987 225.247 132.973C226.144 133.959 227.437 134.456 229.13 134.456C230.824 134.456 232.117 133.963 233.014 132.973C233.911 131.987 234.357 130.751 234.357 129.272V120.387Z" fill="white"/>
<path d="M267.619 137.419C266.998 137.419 266.536 137.084 266.237 136.418L260.823 125.198C260.75 125.052 260.649 124.971 260.524 124.96C260.4 124.948 260.276 125.002 260.152 125.125L257.985 127.829C257.663 128.226 257.499 128.68 257.499 129.2V136.31C257.499 136.657 257.398 136.926 257.2 137.126C257.002 137.323 256.727 137.423 256.377 137.423H255.072C254.723 137.423 254.451 137.323 254.249 137.126C254.051 136.93 253.95 136.657 253.95 136.31V113.355C253.95 113.009 254.051 112.739 254.249 112.539C254.447 112.342 254.723 112.242 255.072 112.242H256.377C256.727 112.242 256.999 112.342 257.2 112.539C257.398 112.735 257.499 113.009 257.499 113.355V122.425C257.499 122.622 257.569 122.745 257.705 122.795C257.841 122.845 257.973 122.784 258.097 122.61L265.825 112.835C266.124 112.442 266.598 112.242 267.242 112.242H269.258C269.607 112.242 269.836 112.362 269.949 112.593C270.061 112.828 270.019 113.055 269.817 113.278L263.507 121.016C263.184 121.413 263.122 121.817 263.32 122.237L270.077 136.087C270.252 136.456 270.263 136.772 270.116 137.03C269.968 137.288 269.704 137.419 269.331 137.419H267.615H267.619Z" fill="white"/>
</g>
<defs>
<clipPath id="clip0_5290_47318">
<rect width="270.222" height="174.933" fill="white"/>
</clipPath>
</defs>
</svg>
