<svg width="185" height="95" viewBox="0 0 185 95" fill="none" xmlns="http://www.w3.org/2000/svg">
<path d="M106.723 34.4469C106.712 33.6525 105.798 33.1949 105.155 33.6683C101.765 36.1539 97.2881 36.8825 93.2177 35.4911C92.782 35.3438 92.3038 35.5069 92.0593 35.8935C89.421 40.0835 84.6864 47.5771 80.4858 54.116C80.1458 54.6447 80.345 55.3522 80.9163 55.6284C89.1899 59.6106 98.59 59.4344 106.478 55.7441C106.856 55.5679 107.087 55.1839 107.076 54.7709C106.925 48.6792 106.805 40.7779 106.723 34.4469Z" fill="white"/>
<path d="M91.3949 11.9783C91.4215 11.9651 91.4507 11.9599 91.4799 11.9572C95.3537 9.97666 100.144 9.97666 104.145 12.3728C108.168 14.7795 110.397 19.009 110.405 23.3463C110.405 23.3489 110.405 23.3542 110.405 23.3568C110.405 23.3568 110.214 41.7082 109.908 53.8547C113.697 51.427 116.984 48.0997 119.409 43.9597C127.407 30.306 122.59 12.1098 108.867 4.07698C94.9233 -4.08473 76.9095 0.38146 68.511 14.1351C66.1198 18.0516 64.7647 22.3047 64.3662 26.5736C75.0895 20.6608 91.3949 11.9757 91.3949 11.9757V11.9783Z" fill="white"/>
<path d="M88.7236 33.8964C88.9574 33.5045 88.8803 33.0048 88.5456 32.6944C85.4051 29.7695 83.981 25.498 84.6346 21.3659C84.7595 20.5794 83.9252 19.9902 83.2078 20.3506C77.4716 23.2386 70.29 26.8342 64.753 29.5407C64.4448 29.6906 64.2535 30.0036 64.2641 30.3429C64.5935 39.0886 68.8685 47.5317 76.4194 52.9579C76.8419 53.2631 77.437 53.1368 77.6974 52.6897C81.619 45.9273 86.1809 38.1943 88.7236 33.8964Z" fill="white"/>
<path d="M12.8661 93.8451C12.6961 93.9792 12.5048 94.0397 12.2922 94.0213C12.0797 94.0055 11.8804 93.945 11.6918 93.8451L4.25775 89.5473C4.13819 89.4789 4.03191 89.4789 3.93892 89.5473C3.84593 89.6156 3.78217 89.6998 3.74763 89.7998L2.7008 93.2375C2.58124 93.6426 2.29164 93.8451 1.832 93.8451H0.580592C0.0864072 93.8451 -0.0916056 93.6084 0.0438966 93.1376L5.15313 77.3323C5.23815 77.064 5.3524 76.8825 5.49853 76.7878C5.642 76.6958 5.8333 76.6484 6.07242 76.6484H7.86052C8.09964 76.6484 8.29094 76.6958 8.43441 76.7878C8.57788 76.8799 8.69479 77.0614 8.77981 77.3323L13.6579 92.4537C13.7775 92.8403 13.7084 93.1454 13.4533 93.3638L12.8661 93.8451ZM7.2202 79.8626C7.16972 79.6785 7.0847 79.5838 6.96514 79.5838C6.84558 79.5838 6.76056 79.6759 6.71008 79.8626L4.69348 86.5382C4.6244 86.7565 4.61643 86.9222 4.66692 87.0301C4.7174 87.1406 4.80242 87.2274 4.92198 87.2957L9.72301 90.0759C9.90899 90.1943 10.0472 90.2074 10.1322 90.1128C10.2172 90.0207 10.2438 89.9155 10.2092 89.7971L7.2202 79.86V79.8626Z" fill="white"/>
<path d="M33.4016 93.8438C32.9765 93.8438 32.6603 93.615 32.4557 93.16L29.4428 86.7368C29.3418 86.5001 29.1612 86.3818 28.9061 86.3818H26.4804C26.3103 86.3818 26.2253 86.4659 26.2253 86.6343V93.0811C26.2253 93.3178 26.1562 93.5019 26.0207 93.6387C25.8852 93.7754 25.6966 93.8412 25.4574 93.8412H24.5647C24.3256 93.8412 24.1396 93.7728 24.0015 93.6387C23.866 93.5045 23.7969 93.3178 23.7969 93.0811V77.4047C23.7969 77.168 23.866 76.9838 24.0015 76.8471C24.137 76.7129 24.3256 76.6445 24.5647 76.6445H29.8015C30.4817 76.6445 31.122 76.7682 31.7171 77.0101C32.3123 77.2548 32.8277 77.5914 33.2634 78.0228C33.6965 78.4515 34.0393 78.9618 34.2863 79.5536C34.5334 80.1428 34.6557 80.7767 34.6557 81.45C34.6557 82.4101 34.4245 83.2623 33.9595 84.004C33.4946 84.7457 32.9101 85.3113 32.2033 85.6979C31.9297 85.8505 31.8712 86.0951 32.0253 86.4317L35.0914 92.9311C35.2109 93.1836 35.2189 93.3993 35.118 93.5755C35.017 93.7518 34.8363 93.8412 34.5813 93.8412H33.4069L33.4016 93.8438ZM29.6474 84.1092C29.9875 84.1092 30.3143 84.0461 30.6304 83.9198C30.9466 83.7936 31.2229 83.6121 31.4594 83.3754C31.6985 83.1387 31.8898 82.8572 32.0333 82.5284C32.1768 82.1996 32.2512 81.8419 32.2512 81.4527C32.2512 81.0634 32.1794 80.7162 32.0333 80.4032C31.8872 80.0902 31.6959 79.8272 31.4594 79.6062C31.2203 79.3879 30.944 79.2196 30.6304 79.1012C30.3143 78.9828 29.9875 78.925 29.6474 78.925H26.5069C26.3369 78.925 26.2519 79.0091 26.2519 79.1775V83.8567C26.2519 84.0251 26.3369 84.1092 26.5069 84.1092H29.6474Z" fill="white"/>
<path d="M49.1086 93.8451C48.8695 93.8451 48.6835 93.7767 48.548 93.6426C48.4125 93.5084 48.3434 93.3217 48.3434 93.0849V79.1787C48.3434 79.0104 48.2584 78.9262 48.0884 78.9262H44.2571C44.018 78.9262 43.832 78.8579 43.6938 78.7237C43.5583 78.5896 43.4893 78.4028 43.4893 78.1661V77.4086C43.4893 77.1719 43.5583 76.9877 43.6938 76.851C43.8293 76.7168 44.018 76.6484 44.2571 76.6484H54.8582C55.0973 76.6484 55.2833 76.7168 55.4214 76.851C55.5569 76.9851 55.626 77.1719 55.626 77.4086V78.1661C55.626 78.4028 55.5569 78.5869 55.4214 78.7237C55.2859 78.8579 55.0973 78.9262 54.8582 78.9262H51.0269C50.8569 78.9262 50.7718 79.0104 50.7718 79.1787V93.0849C50.7718 93.3217 50.7028 93.5058 50.5673 93.6426C50.4318 93.7793 50.2431 93.8451 50.004 93.8451H49.1113H49.1086Z" fill="white"/>
<path d="M70.3107 93.8451C70.0716 93.8451 69.8803 93.7978 69.7368 93.7057C69.5907 93.6136 69.4764 93.4321 69.3914 93.1612L64.2822 77.356C64.1467 76.8852 64.3247 76.6484 64.8189 76.6484H66.0703C66.5299 76.6484 66.8195 76.851 66.9391 77.256L70.9484 90.6335C70.9988 90.8203 71.0839 90.9124 71.2034 90.9124C71.323 90.9124 71.408 90.8203 71.4585 90.6335L75.4678 77.256C75.5873 76.851 75.8769 76.6484 76.3366 76.6484H77.588C78.0822 76.6484 78.2602 76.8852 78.1247 77.356L73.0154 93.1612C72.9304 93.4321 72.8162 93.6136 72.67 93.7057C72.5239 93.7978 72.3326 93.8451 72.0961 93.8451H70.308H70.3107Z" fill="white"/>
<path d="M99.8096 88.282C99.8096 89.1421 99.6608 89.9311 99.3632 90.6466C99.0656 91.362 98.6485 91.9749 98.1118 92.4799C97.5751 92.9849 96.9401 93.382 96.2095 93.6687C95.4762 93.9554 94.6764 94.0975 93.8076 94.0975C92.9388 94.0975 92.1391 93.9528 91.4058 93.6687C90.6725 93.382 90.0401 92.9849 89.5034 92.4799C88.9667 91.9749 88.5496 91.3646 88.252 90.6466C87.9545 89.9311 87.8057 89.1421 87.8057 88.282V82.214C87.8057 81.3539 87.9545 80.5674 88.252 79.8493C88.5496 79.1339 88.9667 78.5211 89.5034 78.016C90.0401 77.511 90.6751 77.1139 91.4058 76.8272C92.1364 76.5405 92.9388 76.3984 93.8076 76.3984C94.6764 76.3984 95.4762 76.5431 96.2095 76.8272C96.9401 77.1139 97.5751 77.511 98.1118 78.016C98.6485 78.5211 99.0656 79.1339 99.3632 79.8493C99.6608 80.5674 99.8096 81.3539 99.8096 82.214V88.282ZM97.3838 82.214C97.3838 81.2013 97.0783 80.3596 96.4645 79.6863C95.8508 79.0129 94.966 78.6736 93.8076 78.6736C92.6492 78.6736 91.7645 79.0103 91.1507 79.6863C90.537 80.3596 90.2314 81.2039 90.2314 82.214V88.282C90.2314 89.2946 90.537 90.1363 91.1507 90.8097C91.7645 91.483 92.6492 91.8223 93.8076 91.8223C94.966 91.8223 95.8508 91.4856 96.4645 90.8097C97.0783 90.1363 97.3838 89.292 97.3838 88.282V82.214Z" fill="white"/>
<path d="M111.127 90.6334C111.297 90.4651 111.48 90.3888 111.677 90.4046C111.873 90.4204 112.046 90.4966 112.2 90.6334C112.336 90.7518 112.49 90.8833 112.66 91.0253C112.83 91.17 113.026 91.2989 113.247 91.4172C113.467 91.5356 113.723 91.6329 114.012 91.7092C114.302 91.7855 114.634 91.8223 115.008 91.8223C115.827 91.8223 116.499 91.5987 117.025 91.1516C117.554 90.7044 117.817 90.1442 117.817 89.4709C117.817 88.7133 117.583 88.1057 117.115 87.6507C116.648 87.1957 115.901 86.7249 114.881 86.2356C114.233 85.9331 113.651 85.6123 113.13 85.2756C112.609 84.9389 112.163 84.5601 111.788 84.1367C111.414 83.7158 111.129 83.2398 110.933 82.7084C110.736 82.1771 110.638 81.5669 110.638 80.8752C110.638 80.3018 110.749 79.7468 110.97 79.2049C111.191 78.6657 111.515 78.1897 111.94 77.7767C112.365 77.3637 112.88 77.0297 113.486 76.7772C114.089 76.5247 114.767 76.3984 115.516 76.3984C116.486 76.3984 117.317 76.5852 118.005 76.9561C118.696 77.3269 119.244 77.7136 119.653 78.1186C120.011 78.4737 120.011 78.8262 119.653 79.1813L119.066 79.7889C118.896 79.9572 118.733 80.0466 118.579 80.0545C118.425 80.0624 118.247 79.9756 118.043 79.7889C117.822 79.5863 117.479 79.3496 117.02 79.0813C116.56 78.813 116.058 78.6762 115.513 78.6762C115.139 78.6762 114.793 78.7394 114.48 78.8656C114.164 78.9919 113.893 79.1576 113.661 79.3575C113.43 79.56 113.252 79.7915 113.125 80.0519C112.997 80.3123 112.933 80.5884 112.933 80.8725C112.933 81.2434 112.989 81.5722 113.098 81.8589C113.21 82.1456 113.38 82.4112 113.608 82.6558C113.839 82.9005 114.137 83.1319 114.501 83.3502C114.868 83.5685 115.314 83.7895 115.843 84.0078C116.542 84.3103 117.163 84.6312 117.708 84.9678C118.253 85.3045 118.712 85.6806 119.087 86.0936C119.461 86.5065 119.746 86.9774 119.942 87.5087C120.139 88.04 120.237 88.6502 120.237 89.342C120.237 89.9838 120.102 90.5887 119.828 91.1621C119.554 91.7355 119.18 92.2379 118.704 92.6666C118.229 93.0954 117.671 93.4425 117.03 93.7029C116.393 93.9633 115.715 94.0949 115.001 94.0949C113.842 94.0949 112.936 93.9213 112.28 93.5767C111.624 93.2321 111.05 92.7876 110.556 92.2484C110.42 92.1143 110.343 91.9459 110.324 91.7434C110.308 91.5409 110.383 91.3567 110.556 91.1858L111.119 90.6282L111.127 90.6334Z" fill="white"/>
<path d="M135.313 93.8451C135.074 93.8451 134.888 93.7767 134.75 93.6426C134.615 93.5084 134.546 93.3217 134.546 93.0849V79.1787C134.546 79.0104 134.461 78.9262 134.291 78.9262H130.459C130.22 78.9262 130.034 78.8579 129.896 78.7237C129.76 78.5896 129.691 78.4028 129.691 78.1661V77.4086C129.691 77.1719 129.76 76.9877 129.896 76.851C130.031 76.7168 130.22 76.6484 130.459 76.6484H141.06C141.299 76.6484 141.485 76.7168 141.624 76.851C141.759 76.9851 141.828 77.1719 141.828 77.4086V78.1661C141.828 78.4028 141.759 78.5869 141.624 78.7237C141.488 78.8605 141.299 78.9262 141.06 78.9262H137.229C137.059 78.9262 136.974 79.0104 136.974 79.1787V93.0849C136.974 93.3217 136.905 93.5058 136.769 93.6426C136.634 93.7767 136.445 93.8451 136.206 93.8451H135.313Z" fill="white"/>
<path d="M162.773 88.282C162.773 89.1421 162.625 89.9311 162.327 90.6466C162.03 91.362 161.612 91.9749 161.076 92.4799C160.539 92.9849 159.904 93.382 159.173 93.6687C158.44 93.9554 157.64 94.0975 156.771 94.0975C155.903 94.0975 155.103 93.9528 154.37 93.6687C153.636 93.382 153.004 92.9849 152.467 92.4799C151.931 91.9749 151.513 91.3646 151.216 90.6466C150.918 89.9311 150.77 89.1421 150.77 88.282V82.214C150.77 81.3539 150.918 80.5674 151.216 79.8493C151.513 79.1339 151.931 78.5211 152.467 78.016C153.004 77.511 153.639 77.1139 154.37 76.8272C155.103 76.5405 155.903 76.3984 156.771 76.3984C157.64 76.3984 158.44 76.5431 159.173 76.8272C159.904 77.1139 160.539 77.511 161.076 78.016C161.612 78.5211 162.03 79.1339 162.327 79.8493C162.625 80.5674 162.773 81.3539 162.773 82.214V88.282ZM160.348 82.214C160.348 81.2013 160.042 80.3596 159.428 79.6863C158.815 79.0129 157.93 78.6736 156.771 78.6736C155.613 78.6736 154.728 79.0103 154.115 79.6863C153.501 80.3596 153.195 81.2039 153.195 82.214V88.282C153.195 89.2946 153.501 90.1363 154.115 90.8097C154.728 91.483 155.613 91.8223 156.771 91.8223C157.93 91.8223 158.815 91.4856 159.428 90.8097C160.042 90.1363 160.348 89.292 160.348 88.282V82.214Z" fill="white"/>
<path d="M183.105 93.8464C182.68 93.8464 182.364 93.6175 182.159 93.1625L178.456 85.5005C178.405 85.4006 178.336 85.3454 178.251 85.3375C178.166 85.3296 178.081 85.3664 177.996 85.4506L176.513 87.297C176.293 87.5679 176.181 87.8783 176.181 88.2334V93.0889C176.181 93.3256 176.112 93.5097 175.977 93.6465C175.841 93.7806 175.653 93.849 175.413 93.849H174.521C174.282 93.849 174.096 93.7806 173.958 93.6465C173.822 93.5123 173.753 93.3256 173.753 93.0889V77.4125C173.753 77.1758 173.822 76.9916 173.958 76.8549C174.093 76.7207 174.282 76.6523 174.521 76.6523H175.413C175.653 76.6523 175.839 76.7207 175.977 76.8549C176.112 76.989 176.181 77.1758 176.181 77.4125V83.6068C176.181 83.7409 176.229 83.8251 176.322 83.8593C176.415 83.8935 176.506 83.8514 176.591 83.733L181.878 77.0574C182.082 76.7891 182.406 76.6523 182.848 76.6523H184.226C184.466 76.6523 184.622 76.7339 184.699 76.8917C184.776 77.0521 184.747 77.2073 184.609 77.3599L180.292 82.6441C180.071 82.915 180.029 83.1912 180.164 83.4779L184.787 92.9363C184.907 93.1888 184.915 93.4045 184.814 93.5807C184.713 93.7569 184.532 93.8464 184.277 93.8464H183.103H183.105Z" fill="white"/>
</svg>
