<svg width="36" height="36" viewBox="0 0 36 36" fill="none" xmlns="http://www.w3.org/2000/svg">
<circle cx="18" cy="18" r="17.5" stroke="white"/>
<g clip-path="url(#clip0_217_11176)">
<path d="M10.1733 6.16406C8.64897 6.16406 7.65234 7.16501 7.65234 8.48063C7.65234 9.76721 8.61931 10.7967 10.1148 10.7967H10.1438C11.6979 10.7967 12.6651 9.76721 12.6651 8.48063C12.6361 7.16501 11.6979 6.16406 10.1733 6.16406ZM7.91577 12.6272H12.372V26.0341H7.91573L7.91577 12.6272ZM23.3101 12.3125C20.9061 12.3125 19.2941 14.5715 19.2941 14.5715V12.6272H14.8377V26.0341H19.2938V18.5472C19.2938 18.1464 19.3229 17.7462 19.4407 17.4596C19.7628 16.6592 20.4959 15.83 21.727 15.83C23.3395 15.83 23.9845 17.0595 23.9845 18.8618V26.0341H28.4404V18.3468C28.4404 14.2288 26.2418 12.3125 23.3101 12.3125Z" fill="white"/>
</g>
<defs>
<clipPath id="clip0_217_11176">
<rect width="22.1739" height="22.1739" fill="white" transform="translate(7.65234 6.17188)"/>
</clipPath>
</defs>
</svg>
