<svg width="49" height="49" viewBox="0 0 49 49" fill="none" xmlns="http://www.w3.org/2000/svg">
<path d="M24.1777 0C37.5307 0 48.3554 10.8247 48.3555 24.1777C48.3555 37.5308 37.5308 48.3555 24.1777 48.3555C10.8247 48.3554 0 37.5307 0 24.1777C2.26778e-05 10.8248 10.8248 2.26793e-05 24.1777 0ZM9.83594 16.5352V35.6025H16.1738V16.5352H9.83594ZM31.7295 16.0879C28.3343 16.0881 26.05 19.256 26.0186 19.2998V16.5352H19.6797V35.6025H26.0176V24.9541C26.0176 24.3842 26.0591 23.8148 26.2266 23.4072C26.6848 22.2691 27.7278 21.0898 29.4785 21.0898C31.7717 21.09 32.6885 22.8391 32.6885 25.4023V35.6025H39.0264V24.6699C39.0264 18.8132 35.899 16.0879 31.7295 16.0879ZM13.0459 7.34277C10.8782 7.34297 9.46094 8.76672 9.46094 10.6377C9.46097 12.4674 10.8361 13.9315 12.9629 13.9316H13.0039C15.2142 13.9316 16.5898 12.4675 16.5898 10.6377C16.5485 8.76659 15.2142 7.34277 13.0459 7.34277Z" fill="white"/>
</svg>
