<svg width="34" height="34" viewBox="0 0 34 34" fill="none" xmlns="http://www.w3.org/2000/svg">
<circle cx="17" cy="17" r="17" fill="white"/>
<g clip-path="url(#clip0_5286_62561)">
<path d="M9.17332 5.16016C7.64897 5.16016 6.65234 6.1611 6.65234 7.47672C6.65234 8.76331 7.61931 9.7928 9.11485 9.7928H9.14376C10.6979 9.7928 11.6651 8.76331 11.6651 7.47672C11.6361 6.1611 10.6979 5.16016 9.17332 5.16016ZM6.91577 11.6233H11.372V25.0302H6.91573L6.91577 11.6233ZM22.3101 11.3086C19.9061 11.3086 18.2941 13.5676 18.2941 13.5676V11.6233H13.8377V25.0302H18.2938V17.5433C18.2938 17.1424 18.3229 16.7423 18.4407 16.4557C18.7628 15.6553 19.4959 14.8261 20.727 14.8261C22.3395 14.8261 22.9845 16.0556 22.9845 17.8579V25.0302H27.4404V17.3429C27.4404 13.2249 25.2418 11.3086 22.3101 11.3086Z" fill="#0F1F2D"/>
</g>
<defs>
<clipPath id="clip0_5286_62561">
<rect width="22.1739" height="22.1739" fill="white" transform="translate(6.65234 5.17188)"/>
</clipPath>
</defs>
</svg>
