<svg width="23" height="23" viewBox="0 0 23 23" fill="none" xmlns="http://www.w3.org/2000/svg">
<g clip-path="url(#clip0_5286_62568)">
<path d="M2.52097 -0.0117188C0.996624 -0.0117188 0 0.989225 0 2.30485C0 3.59143 0.966968 4.62093 2.46251 4.62093H2.49141C4.04558 4.62093 5.01277 3.59143 5.01277 2.30485C4.98374 0.989225 4.04558 -0.0117188 2.52097 -0.0117188ZM0.263423 6.45144H4.7197V19.8583H0.263391L0.263423 6.45144ZM15.6578 6.13677C13.2538 6.13677 11.6418 8.39574 11.6418 8.39574V6.45141H7.18535V19.8583H11.6415V12.3714C11.6415 11.9706 11.6706 11.5704 11.7883 11.2838C12.1105 10.4834 12.8436 9.65426 14.0747 9.65426C15.6872 9.65426 16.3321 10.8837 16.3321 12.6861V19.8583H20.788V12.171C20.788 8.05306 18.5894 6.13677 15.6578 6.13677Z" fill="white"/>
</g>
<defs>
<clipPath id="clip0_5286_62568">
<rect width="22.1739" height="22.1739" fill="white"/>
</clipPath>
</defs>
</svg>
