<svg width="36" height="36" viewBox="0 0 36 36" fill="none" xmlns="http://www.w3.org/2000/svg">
<circle cx="18" cy="18" r="17.5" stroke="white"/>
<path d="M22.1586 6.91406H13.8434C10.017 6.91406 6.91406 10.017 6.91406 13.8434V22.1586C6.91406 25.985 10.017 29.088 13.8434 29.088H22.1586C25.985 29.088 29.088 25.985 29.088 22.1586V13.8434C29.088 10.017 25.985 6.91406 22.1586 6.91406ZM27.0092 22.1586C27.0092 24.8334 24.8334 27.0092 22.1586 27.0092H13.8434C11.1687 27.0092 8.99287 24.8334 8.99287 22.1586V13.8434C8.99287 11.1687 11.1687 8.99287 13.8434 8.99287H22.1586C24.8334 8.99287 27.0092 11.1687 27.0092 13.8434V22.1586Z" fill="white"/>
<path d="M18.0005 12.4609C14.9391 12.4609 12.457 14.943 12.457 18.0044C12.457 21.0658 14.9391 23.5479 18.0005 23.5479C21.0619 23.5479 23.544 21.0658 23.544 18.0044C23.544 14.943 21.0619 12.4609 18.0005 12.4609ZM18.0005 21.4691C16.0908 21.4691 14.5358 19.9141 14.5358 18.0044C14.5358 16.0933 16.0908 14.5397 18.0005 14.5397C19.9102 14.5397 21.4652 16.0933 21.4652 18.0044C21.4652 19.9141 19.9102 21.4691 18.0005 21.4691Z" fill="white"/>
<path d="M23.9594 12.782C24.3673 12.782 24.698 12.4513 24.698 12.0434C24.698 11.6354 24.3673 11.3047 23.9594 11.3047C23.5514 11.3047 23.2207 11.6354 23.2207 12.0434C23.2207 12.4513 23.5514 12.782 23.9594 12.782Z" fill="white"/>
</svg>
