<svg width="49" height="49" viewBox="0 0 49 49" fill="none" xmlns="http://www.w3.org/2000/svg">
<path d="M24.1777 0C37.5307 0 48.3554 10.8247 48.3555 24.1777C48.3555 37.5308 37.5308 48.3555 24.1777 48.3555C10.8247 48.3554 0 37.5307 0 24.1777C2.26778e-05 10.8248 10.8248 2.26793e-05 24.1777 0ZM18.2656 8.40918C12.8237 8.40918 8.41016 12.8227 8.41016 18.2646V30.0898C8.41016 35.5318 12.8237 39.9453 18.2656 39.9453H30.0918C35.5336 39.9451 39.9463 35.5317 39.9463 30.0898V18.2646C39.9463 12.8228 35.5336 8.40938 30.0918 8.40918H18.2656ZM30.0918 11.3652C33.8957 11.3654 36.9902 14.4607 36.9902 18.2646V30.0898C36.9902 33.8938 33.8957 36.9891 30.0918 36.9893H18.2656C14.4616 36.9893 11.3672 33.8939 11.3672 30.0898V18.2646C11.3672 14.4606 14.4616 11.3652 18.2656 11.3652H30.0918ZM24.1777 16.2939C19.8238 16.2939 16.294 19.8238 16.2939 24.1777C16.2939 28.5317 19.8238 32.0615 24.1777 32.0615C28.5317 32.0615 32.0615 28.5317 32.0615 24.1777C32.0614 19.8239 28.5316 16.294 24.1777 16.2939ZM24.1777 19.25C26.8937 19.25 29.1054 21.4598 29.1055 24.1777C29.1055 26.8938 26.8938 29.1054 24.1777 29.1055C21.4617 29.1055 19.25 26.8938 19.25 24.1777C19.2501 21.4598 21.4617 19.25 24.1777 19.25ZM32.6523 14.6523C32.0722 14.6524 31.6016 15.123 31.6016 15.7031C31.6018 16.2831 32.0724 16.7528 32.6523 16.7529C33.2324 16.7529 33.7029 16.2831 33.7031 15.7031C33.7031 15.1229 33.2325 14.6523 32.6523 14.6523Z" fill="white"/>
</svg>
