<svg width="40" height="40" viewBox="0 0 40 40" fill="none" xmlns="http://www.w3.org/2000/svg">
<foreignObject x="-4" y="-4" width="48" height="48"><div xmlns="http://www.w3.org/1999/xhtml" style="backdrop-filter:blur(2px);clip-path:url(#bgblur_0_5286_64105_clip_path);height:100%;width:100%"></div></foreignObject><path data-figma-bg-blur-radius="4" d="M20 0C31.0457 0 40 8.9543 40 20C40 31.0457 31.0457 40 20 40C8.9543 40 0 31.0457 0 20C0 8.9543 8.9543 0 20 0ZM18.3535 13.6465C18.1583 13.4512 17.8417 13.4512 17.6465 13.6465C17.4512 13.8417 17.4512 14.1583 17.6465 14.3535L23.293 20L17.6465 25.6465C17.4512 25.8417 17.4512 26.1583 17.6465 26.3535C17.8417 26.5488 18.1583 26.5488 18.3535 26.3535L24.707 20L18.3535 13.6465Z" fill="white"/>
<defs>
<clipPath id="bgblur_0_5286_64105_clip_path" transform="translate(4 4)"><path d="M20 0C31.0457 0 40 8.9543 40 20C40 31.0457 31.0457 40 20 40C8.9543 40 0 31.0457 0 20C0 8.9543 8.9543 0 20 0ZM18.3535 13.6465C18.1583 13.4512 17.8417 13.4512 17.6465 13.6465C17.4512 13.8417 17.4512 14.1583 17.6465 14.3535L23.293 20L17.6465 25.6465C17.4512 25.8417 17.4512 26.1583 17.6465 26.3535C17.8417 26.5488 18.1583 26.5488 18.3535 26.3535L24.707 20L18.3535 13.6465Z"/>
</clipPath></defs>
</svg>
