<svg width="44" height="44" viewBox="0 0 44 44" fill="none" xmlns="http://www.w3.org/2000/svg">
<foreignObject x="-4" y="-4" width="52" height="52"><div xmlns="http://www.w3.org/1999/xhtml" style="backdrop-filter:blur(2px);clip-path:url(#bgblur_0_5286_64110_clip_path);height:100%;width:100%"></div></foreignObject><path data-figma-bg-blur-radius="4" d="M22 0C34.1503 0 44 9.84974 44 22C44 34.1503 34.1503 44 22 44C9.84974 44 0 34.1503 0 22C0 9.84974 9.84974 0 22 0ZM19.3535 13.6465C19.1583 13.4512 18.8417 13.4512 18.6465 13.6465C18.4512 13.8417 18.4512 14.1583 18.6465 14.3535L26.293 22L18.6465 29.6465C18.4512 29.8417 18.4512 30.1583 18.6465 30.3535C18.8417 30.5488 19.1583 30.5488 19.3535 30.3535L27.707 22L19.3535 13.6465Z" fill="white"/>
<defs>
<clipPath id="bgblur_0_5286_64110_clip_path" transform="translate(4 4)"><path d="M22 0C34.1503 0 44 9.84974 44 22C44 34.1503 34.1503 44 22 44C9.84974 44 0 34.1503 0 22C0 9.84974 9.84974 0 22 0ZM19.3535 13.6465C19.1583 13.4512 18.8417 13.4512 18.6465 13.6465C18.4512 13.8417 18.4512 14.1583 18.6465 14.3535L26.293 22L18.6465 29.6465C18.4512 29.8417 18.4512 30.1583 18.6465 30.3535C18.8417 30.5488 19.1583 30.5488 19.3535 30.3535L27.707 22L19.3535 13.6465Z"/>
</clipPath></defs>
</svg>
